<svg xmlns="http://www.w3.org/2000/svg" viewBox="0 0 170 49"><path class="st0" fill="#505050" d="M76 36.5l-3.4-5H71v5h-3v-15h5.9c1.1 0 2 .1 2.7.2.7.1 1.3.3 1.7.7.4.3.8.8.9 1.5.2.6.3 1.5.3 2.5 0 .8-.1 1.5-.2 2.1-.1.6-.3 1-.6 1.4-.3.4-.6.6-1 .8-.4.2-1 .3-1.6.4l4 5.5H76zm-2-8c.5 0 .9 0 1.2-.1.3 0 .6-.1.8-.3.2-.2.4-.4.5-.7.1-.3.1-.8.1-1.4 0-.6 0-1.1-.1-1.4-.1-.3-.2-.6-.5-.7-.2-.2-.5-.3-.8-.3-.3 0-.7-.1-1.2-.1h-3v5h3zM89.1 21.5l4.8 15h-3.2l-1.1-4h-4l-1.1 4h-3.2l4.8-15h3zm-3 8H89l-1-3.7-.4-2.3h-.1l-.4 2.3-1 3.7zM96 36.5v-15h4.9c1 0 2 .1 2.8.2.9.1 1.6.5 2.2 1 .6.5 1.1 1.3 1.4 2.2s.5 2.3.5 3.9c0 1.7-.1 3-.4 4-.3 1-.7 1.8-1.3 2.3s-1.3.9-2.1 1c-.8.2-1.8.2-2.9.2H96zm5.1-3c.8 0 1.4-.1 1.9-.2s.9-.3 1.2-.7c.3-.4.5-.9.7-1.5.1-.7.2-1.6.2-2.7 0-1.2-.1-2.1-.3-2.8-.2-.7-.5-1.2-.9-1.5-.4-.3-.8-.5-1.3-.6-.5-.1-1-.1-1.6-.1h-2v10h2.1zM111 36.5v-15h3v15h-3zM116.6 29c0-1.6.2-2.9.5-3.9.4-1 .9-1.7 1.5-2.3.6-.5 1.3-.9 2.2-1.1.8-.2 1.7-.3 2.7-.3.9 0 1.8.1 2.7.3.8.2 1.6.5 2.2 1.1.6.5 1.1 1.3 1.5 2.3.4 1 .5 2.3.5 3.9s-.2 2.9-.5 3.9c-.4 1-.9 1.7-1.5 2.3-.6.5-1.3.9-2.2 1.1-.8.2-1.7.3-2.7.3-1 0-1.8-.1-2.7-.3-.8-.2-1.6-.5-2.2-1.1-.6-.5-1.1-1.3-1.5-2.3-.3-1-.5-2.3-.5-3.9zm6.8-5.2c-.5 0-1.1 0-1.5.1-.5.1-.9.2-1.3.6-.4.3-.7.8-.9 1.5s-.3 1.7-.3 2.9c0 1.3.1 2.3.3 3s.5 1.2.9 1.5c.4.3.8.5 1.3.6.5.1 1 .1 1.5.1s1 0 1.5-.1.9-.2 1.3-.6c.4-.3.7-.8.9-1.5.2-.7.3-1.7.3-3s-.1-2.3-.3-2.9c-.2-.7-.5-1.2-.9-1.5-.4-.3-.8-.5-1.3-.6-.4 0-.9-.1-1.5-.1z"/><path class="st1" fill="#00B4F1" d="M133 36.5v-15h10.4l-.2 2H136v4h6v2h-6v4h7.4l-.2 3H133zM151 29.8c-.1.3-.2.6-.3 1-.1.4-.2.8-.4 1.2l-2.6 4.6h-3.5c.4-.6.8-1.2 1.3-1.9s.9-1.3 1.4-2c.5-.7.9-1.4 1.4-2s.9-1.3 1.3-1.9c-.4-.5-.7-1.1-1.1-1.7l-1.2-1.8-1.2-1.8c-.4-.6-.8-1.2-1.1-1.7h3.5l2 3.9c.2.4.3.8.4 1.2.1.4.2.7.3 1 .1-.3.2-.6.3-1 .1-.4.2-.8.4-1.2l2-3.9h3.5c-.4.5-.8 1.1-1.1 1.7l-1.2 1.8-1.2 1.8c-.4.6-.8 1.2-1.1 1.7.4.6.8 1.2 1.3 1.9.4.7.9 1.3 1.4 2 .5.7.9 1.4 1.4 2 .5.7.9 1.3 1.3 1.9h-3.5l-2.6-4.6c-.2-.4-.3-.8-.4-1.2-.5-.4-.6-.7-.7-1zM163 36.5v-13h-4.5l.2-2H170l-.2 2H166v13h-3z"/><g><circle class="st2" fill="#959595" cx="31.5" cy="29" r="19.5"/><path class="st2" fill="#959595" d="M31 .5C22 .5 12 6 7 14v22.6h3c.5 0 .9-.2 1.3-.3-.8-2.4-1.3-4.8-1.3-7.3s.5-4.9 1.2-7.1c-.5-.3-.9-.4-1.2-.4v-7c4-6.9 12-11 21-11 8 0 16.2 4.1 21 11v7c-.5 0-.9.1-1.3.3.8 2.2 1.3 4.6 1.3 7.2s-.5 5-1.3 7.2c.4.2.8.3 1.3.3h3V14C49.7 6 41 .5 31 .5z"/><path class="st3" clip-rule="evenodd" fill="#FFF" fill-rule="evenodd" d="M30.9 11.7c4.6 0 8.9 1.7 12 4.5l-.7.3-.4.4.1.4.4.1.3.6.7-.3.1.9h-.3l-.6-.1-.7.1-.6.9-.9.1-.1.8.4.1-.1.5-.9-.2-.8.2-.2.5.1.9.5.2h.8l.6-.1.2-.4.9-1.1.6.1.6-.5.1.4 1.4.9-.2.1h-.6l.2.4.4.1.5-.2v-.6l.2-.1-.2-.2-1-.5-.2-.4h.8l.2-.1.7.6v.7l.7.7.3-1 .5-.3.1.8.5.5h.2l.5 1h-.8l-.9-.2-1.3.3v.1h.1l-.3.2-1.8-.4v-1l-1.9.2h-1.4l-.4.3-1.3.5v1l-1.8 1.4.2.8h.4l-.1.4-.7.1v1.5l2.1.9h.8v1H41.5l.4-.1 1.1.1-.2 1.5 1.3 2.2-.7 1.3.1.6.5.5V38l1 .9v.9c-3.3 4-8.4 6.6-14 6.6-9.3 0-17-6.9-17.9-15.9v-.4.1l1-1.4V28.5l-1-.3v-.3-.3c.2-2 .9-5.5.9-5.5v1l1 .4v1.4l.9 1.2.6.1.1-.4-.7-1.1-.1-1h.4l.2 1.1 1 1.4-.3.5.6 1 2.3.4V28l.6.1-.1.4.5.1.7.2 1 1.2 1.3.1.1 1.1-.9.6v1l-.1.6 1.3 1.7.1.6.5.1c.1 0 1 .8 1 .8v3l.4.1-.3 1.3.6.8-.1 1.4.8 1.4 1 .9h1l.1-.3-.7-.6.1-.3.1-.4v-.4h-.5l-.3-.3.4-.4.1-.3-.5-.1v-.3l.7-.1 1-.5.3-.6 1.1-1.4-.3-1.3.3-.6h1l.7-.5.2-2.1.7-1 .1-.6-.7-.2-.4-.7h-.7l-1.4-.5-.1-.9-.5-.7H29l-.7-1-.6-.3v.3l-1.1.1-.4-.5-1.2-.3-1 1.1-1.6-.2-.1-1.6-1.1-.2.5-.8-.1-.5-1.5.9-.9-.1-.3-.7.1-.6.5-.9 1.2-.6H23v.6l.8.4-.1-1.1.6-.6 1.2-.7.1-.5 1.2-1.1 1.3-.6-.1-.1.9-.7.3.1.1.2.3-.3h.1-.4l-.3-.3v-.7l-.2-.1h.4l.2.1.2.3h.5l.5-.1.1-.3h.3v.3l-.5.2v.3l1.5.3h-.2v-.4l-.8-.4v-.2l.7-.2v-.6l-.7-.4v-1.1l-1 .7h-.3l.1-1.1-1.3-.3-.5.5v1.2l-1.1.3-.4.8-.5.1v-1l-.8-.1-.5-.3-.2-.6 1.6-.9.8-.2.1.5h.4v-.3l.5-.1v-.1l-.2-.1v-.3l.6-.1.3-.4v-.5l.1.4 1.2-.1.5.4-1.4.7 1.8.4.2-.8h.8l.3-.3-.1-.1v-.6l-2.1-.7-1.2.1-.7.3v.8l-.7-.1-.1-.5.7-.6-1.2-.1-.3.1-.2.4.5.1-.1.4-.8.1-.1.3h-1.1s0-.6-.1-.6h.9l.7-.6-.4-.2-.5.5h-.8l-.5-.6h-2.1 1l.1 1-.2.2h1.1l.2.4h-1.2l-.1-.3-.8-.2-.4-.2h-.7c2.9-1.9 6.3-3.1 10.1-3.1"/><path class="st0" fill="#505050" d="M31 3.5c7.6 0 15.3 3.7 20.2 9.9C46.9 6.2 39.5 1.5 31 1.5c-8 0-15 4.2-19.4 10.7C16 6.7 23.1 3.5 31 3.5z"/><path class="st4" fill="#C8C6C6" d="M57 21.5v15c2 0 5-3.4 5-7.5 0-4.2-3-7.5-5-7.5z"/><path class="st0" fill="#505050" d="M57 21.5v15c1.8-2 3-4.6 3-7.5s-1.1-5.6-3-7.5z"/><path class="st4" fill="#C8C6C6" d="M5 36.5v-15c-2 0-5 3.4-5 7.5s3 7.5 5 7.5z"/><path class="st0" fill="#505050" d="M5 36.5v-15c-1.8 2-3 4.6-3 7.5s1.1 5.5 3 7.5z"/><path class="st5" fill="none" d="M31 .5C22 .5 12 6 7 14v22.6h3c.9 0 1.6-.4 2.2-1-.8-2.1-1.2-4.3-1.2-6.6 0-2.2.4-4.4 1.1-6.4-.7-.7-1.5-1.1-2.1-1.1v-7c4-6.9 12-11 21-11 8 0 16.2 4.1 21 11v7c-1.3 0-2.4.8-2.8 2 .5 1.7.8 3.5.8 5.5s-.3 3.8-.8 5.6c.4 1.1 1.5 2 2.8 2h3V14C49.7 6 41 .5 31 .5z"/></g></svg>