<?xml version="1.0" encoding="utf-8"?>
<!-- Generator: Adobe Illustrator 21.0.0, SVG Export Plug-In . SVG Version: 6.00 Build 0)  -->
<svg version="1.1" id="logotip" xmlns="http://www.w3.org/2000/svg" xmlns:xlink="http://www.w3.org/1999/xlink" x="0px" y="0px"
	 viewBox="0 0 170 49" style="enable-background:new 0 0 170 49;" xml:space="preserve">
<g>
	<g>
		<path class="st0" fill="#505050" d="M76,36.5l-3.4-5H71v5h-3v-15h5.9c1.1,0,2,0.1,2.7,0.2c0.7,0.1,1.3,0.3,1.7,0.7c0.4,0.3,0.8,0.8,0.9,1.5
			c0.2,0.6,0.3,1.5,0.3,2.5c0,0.8-0.1,1.5-0.2,2.1c-0.1,0.6-0.3,1-0.6,1.4c-0.3,0.4-0.6,0.6-1,0.8c-0.4,0.2-1,0.3-1.6,0.4l4,5.5H76z
			 M74,28.5c0.5,0,0.9,0,1.2-0.1c0.3,0,0.6-0.1,0.8-0.3c0.2-0.2,0.4-0.4,0.5-0.7c0.1-0.3,0.1-0.8,0.1-1.4c0-0.6,0-1.1-0.1-1.4
			c-0.1-0.3-0.2-0.6-0.5-0.7c-0.2-0.2-0.5-0.3-0.8-0.3c-0.3,0-0.7-0.1-1.2-0.1h-3v5H74z"/>
		<path class="st0" fill="#505050" d="M89.1,21.5l4.8,15h-3.2l-1.1-4h-4l-1.1,4h-3.2l4.8-15H89.1z M86.1,29.5H89l-1-3.7l-0.4-2.3h-0.1l-0.4,2.3
			L86.1,29.5z"/>
		<path class="st0" fill="#505050" d="M96,36.5v-15h4.9c1,0,2,0.1,2.8,0.2c0.9,0.1,1.6,0.5,2.2,1c0.6,0.5,1.1,1.3,1.4,2.2s0.5,2.3,0.5,3.9
			c0,1.7-0.1,3-0.4,4c-0.3,1-0.7,1.8-1.3,2.3s-1.3,0.9-2.1,1c-0.8,0.2-1.8,0.2-2.9,0.2H96z M101.1,33.5c0.8,0,1.4-0.1,1.9-0.2
			c0.5-0.1,0.9-0.3,1.2-0.7c0.3-0.4,0.5-0.9,0.7-1.5c0.1-0.7,0.2-1.6,0.2-2.7c0-1.2-0.1-2.1-0.3-2.8c-0.2-0.7-0.5-1.2-0.9-1.5
			c-0.4-0.3-0.8-0.5-1.3-0.6c-0.5-0.1-1-0.1-1.6-0.1h-2v10H101.1z"/>
		<path class="st0" fill="#505050" d="M111,36.5v-15h3v15H111z"/>
		<path class="st0" fill="#505050" d="M116.6,29c0-1.6,0.2-2.9,0.5-3.9c0.4-1,0.9-1.7,1.5-2.3c0.6-0.5,1.3-0.9,2.2-1.1c0.8-0.2,1.7-0.3,2.7-0.3
			c0.9,0,1.8,0.1,2.7,0.3c0.8,0.2,1.6,0.5,2.2,1.1c0.6,0.5,1.1,1.3,1.5,2.3c0.4,1,0.5,2.3,0.5,3.9c0,1.6-0.2,2.9-0.5,3.9
			c-0.4,1-0.9,1.7-1.5,2.3c-0.6,0.5-1.3,0.9-2.2,1.1c-0.8,0.2-1.7,0.3-2.7,0.3c-1,0-1.8-0.1-2.7-0.3c-0.8-0.2-1.6-0.5-2.2-1.1
			c-0.6-0.5-1.1-1.3-1.5-2.3C116.8,31.9,116.6,30.6,116.6,29z M123.4,23.8c-0.5,0-1.1,0-1.5,0.1c-0.5,0.1-0.9,0.2-1.3,0.6
			c-0.4,0.3-0.7,0.8-0.9,1.5s-0.3,1.7-0.3,2.9c0,1.3,0.1,2.3,0.3,3s0.5,1.2,0.9,1.5c0.4,0.3,0.8,0.5,1.3,0.6c0.5,0.1,1,0.1,1.5,0.1
			c0.5,0,1,0,1.5-0.1c0.5-0.1,0.9-0.2,1.3-0.6c0.4-0.3,0.7-0.8,0.9-1.5c0.2-0.7,0.3-1.7,0.3-3c0-1.3-0.1-2.3-0.3-2.9
			c-0.2-0.7-0.5-1.2-0.9-1.5c-0.4-0.3-0.8-0.5-1.3-0.6C124.5,23.9,124,23.8,123.4,23.8z"/>
		<path class="st1" fill="#00B4F1" d="M133,36.5v-15h10.4l-0.2,2H136v4h6v2h-6v4h7.4l-0.2,3H133z"/>
		<path class="st1" fill="#00B4F1" d="M151,29.8c-0.1,0.3-0.2,0.6-0.3,1c-0.1,0.4-0.2,0.8-0.4,1.2l-2.6,4.6h-3.5c0.4-0.6,0.8-1.2,1.3-1.9
			c0.5-0.7,0.9-1.3,1.4-2c0.5-0.7,0.9-1.4,1.4-2s0.9-1.3,1.3-1.9c-0.4-0.5-0.7-1.1-1.1-1.7c-0.4-0.6-0.8-1.2-1.2-1.8
			c-0.4-0.6-0.8-1.2-1.2-1.8c-0.4-0.6-0.8-1.2-1.1-1.7h3.5l2,3.9c0.2,0.4,0.3,0.8,0.4,1.2c0.1,0.4,0.2,0.7,0.3,1
			c0.1-0.3,0.2-0.6,0.3-1c0.1-0.4,0.2-0.8,0.4-1.2l2-3.9h3.5c-0.4,0.5-0.8,1.1-1.1,1.7c-0.4,0.6-0.8,1.2-1.2,1.8
			c-0.4,0.6-0.8,1.2-1.2,1.8c-0.4,0.6-0.8,1.2-1.1,1.7c0.4,0.6,0.8,1.2,1.3,1.9c0.4,0.7,0.9,1.3,1.4,2c0.5,0.7,0.9,1.4,1.4,2
			c0.5,0.7,0.9,1.3,1.3,1.9h-3.5l-2.6-4.6c-0.2-0.4-0.3-0.8-0.4-1.2C151.2,30.4,151.1,30.1,151,29.8z"/>
		<path class="st1" fill="#00B4F1" d="M163,36.5v-13h-4.5l0.2-2H170l-0.2,2H166v13H163z"/>
	</g>
	<g>
		<circle class="st2" fill="#959595" cx="31.5" cy="29" r="19.5"/>
		<path class="st2" fill="#959595" d="M31,0.5C22,0.5,12,6,7,14v7.5v15.1h3c0.5,0,0.9-0.2,1.3-0.3C10.5,33.9,10,31.5,10,29c0-2.5,0.5-4.9,1.2-7.1
			c-0.5-0.3-0.9-0.4-1.2-0.4v-7c4-6.9,12-11,21-11c8,0,16.2,4.1,21,11v7c-0.5,0-0.9,0.1-1.3,0.3C51.5,24,52,26.4,52,29
			s-0.5,5-1.3,7.2c0.4,0.2,0.8,0.3,1.3,0.3h3V21.5V14C49.7,6,41,0.5,31,0.5z"/>
		<path class="st3" clip-rule="evenodd" fill="#FFFFFF" fill-rule="evenodd" d="M30.9,11.7c4.6,0,8.9,1.7,12,4.5l-0.7,0.3l-0.4,0.4l0.1,0.4l0.4,0.1l0.3,0.6l0.7-0.3l0.1,0.9h-0.3l-0.6-0.1
			l-0.7,0.1l-0.6,0.9l-0.9,0.1l-0.1,0.8l0.4,0.1l-0.1,0.5l-0.9-0.2l-0.8,0.2l-0.2,0.5l0.1,0.9l0.5,0.2h0.8l0.6-0.1l0.2-0.4l0.9-1.1
			l0.6,0.1l0.6-0.5l0.1,0.4l1.4,0.9L44.2,22l-0.6,0l0.2,0.4l0.4,0.1l0.5-0.2l0-0.6l0.2-0.1l-0.2-0.2l-1-0.5l-0.2-0.4h0.8l0.2-0.1
			l0.7,0.6l0,0.7l0.7,0.7l0.3-1l0.5-0.3l0.1,0.8l0.5,0.5h0.2l0.5,1h-0.8l-0.9-0.2L45,23.5v0.1h0.1l-0.3,0.2L43,23.4v-1l-1.9,0.2
			l-0.6,0h-0.8l-0.4,0.3L38,23.4v1l-1.8,1.4l0.2,0.8h0.4L36.7,27L36,27.1v1.5l2.1,0.9h0.8l0,1h1.4h0.4h0.8l0.4-0.1l1.1,0.1l-0.2,1.5
			l1.3,2.2l-0.7,1.3l0.1,0.6l0.5,0.5v1.4l1,0.9v0.9c-3.3,4-8.4,6.6-14,6.6c-9.3,0-17-6.9-17.9-15.9c0-0.1,0-0.3,0-0.4v0.1l1-1.4
			v-0.1v-0.2l-1-0.3l0-0.3V28c0,0,0-0.2,0-0.3l0-0.1c0.2-2,0.9-5.5,0.9-5.5v1l1,0.4v1.4l0.9,1.2l0.6,0.1l0.1-0.4l-0.7-1.1l-0.1-1
			h0.4l0.2,1.1l1,1.4l-0.3,0.5l0.6,1l2.3,0.4V28l0.6,0.1l-0.1,0.4l0.5,0.1l0.7,0.2l1,1.2l1.3,0.1l0.1,1.1l-0.9,0.6l0,1l-0.1,0.6
			l1.3,1.7l0.1,0.6c0,0,0.5,0.1,0.5,0.1c0.1,0,1,0.8,1,0.8v3l0.4,0.1L26.1,41l0.6,0.8l-0.1,1.4l0.8,1.4l1,0.9l1,0l0.1-0.3l-0.7-0.6
			l0.1-0.3l0.1-0.4l0-0.4l-0.5,0l-0.3-0.3l0.4-0.4l0.1-0.3l-0.5-0.1l0-0.3l0.7-0.1l1-0.5l0.3-0.6l1.1-1.4L31,38.2l0.3-0.6l1,0
			l0.7-0.5l0.2-2.1l0.7-1l0.1-0.6l-0.7-0.2l-0.4-0.7l-0.7,0l-1.4-0.5l-0.1-0.9l-0.5-0.7l-1.2,0l-0.7-1l-0.6-0.3l0,0.3l-1.1,0.1
			L26.2,29L25,28.7l-1,1.1l-1.6-0.2l-0.1-1.6l-1.1-0.2l0.5-0.8l-0.1-0.5l-1.5,0.9l-0.9-0.1l-0.3-0.7L19,26l0.5-0.9l1.2-0.6H23v0.6
			l0.8,0.4l-0.1-1.1l0.6-0.6l1.2-0.7l0.1-0.5l1.2-1.1l1.3-0.6L28,20.8l0.9-0.7l0.3,0.1l0.1,0.2l0.3-0.3l0.1,0l-0.4,0L29,19.8v-0.7
			L28.8,19l0.4,0l0.2,0.1l0.2,0.3l0.4,0v0l0.1,0l0.5-0.1l0.1-0.3L31,19v0.3l-0.5,0.2l0,0.3l1.5,0.3v0l-0.2,0l0-0.4L31,19.3l0-0.2
			l0.7-0.2l0-0.6L31,17.9l0-1.1l-1,0.7h-0.3l0.1-1.1l-1.3-0.3L28,16.6v1.2l-1.1,0.3l-0.4,0.8L26,19v-1l-0.8-0.1l-0.5-0.3l-0.2-0.6
			l1.6-0.9l0.8-0.2l0.1,0.5l0.4,0l0-0.3l0.5-0.1l0-0.1l-0.2-0.1l0-0.3l0.6-0.1l0.3-0.4l0-0.5h0l0.1,0.4l1.2-0.1l0.5,0.4l-1.4,0.7
			l1.8,0.4l0.2-0.8h0.8l0.3-0.3L32,15.1v-0.6l-2.1-0.7l-1.2,0.1l-0.7,0.3l0,0.8l-0.7-0.1l-0.1-0.5l0.7-0.6l-1.2-0.1l-0.3,0.1
			l-0.2,0.4l0.5,0.1l-0.1,0.4l-0.8,0.1l-0.1,0.3l-1.1,0c0,0,0-0.6-0.1-0.6c0,0,0.9,0,0.9,0l0.7-0.6l-0.4-0.2l-0.5,0.5l-0.8,0
			l-0.5-0.6h-1h-1.1h1l0.1,1l-0.2,0.2l1.1,0l0.2,0.4l-1.2,0l-0.1-0.3l-0.8-0.2l-0.4-0.2h-0.7c2.9-1.9,6.3-3.1,10.1-3.1"/>
		<path class="st0" fill="#505050" d="M31,3.5c7.6,0,15.3,3.7,20.2,9.9C46.9,6.2,39.5,1.5,31,1.5c-8,0-15,4.2-19.4,10.7C16,6.7,23.1,3.5,31,3.5z"/>
		<path class="st4" fill="#C8C6C6" d="M57,21.5v15c2,0,5-3.4,5-7.5C62,24.8,59,21.5,57,21.5z"/>
		<path class="st0" fill="#505050" d="M57,21.5C57,21.5,57,21.5,57,21.5l0,15c0,0,0,0,0,0c1.8-2,3-4.6,3-7.5S58.9,23.4,57,21.5z"/>
		<path class="st4" fill="#C8C6C6" d="M5,36.5v-15c-2,0-5,3.4-5,7.5C0,33.1,3,36.5,5,36.5z"/>
		<path class="st0" fill="#505050" d="M5,36.5C5,36.5,5,36.5,5,36.5l0-15c0,0,0,0,0,0c-1.8,2-3,4.6-3,7.5S3.1,34.5,5,36.5z"/>
		<path class="st5" fill="none" d="M31,0.5C22,0.5,12,6,7,14v7.5v15.1h3c0.9,0,1.6-0.4,2.2-1C11.4,33.5,11,31.3,11,29c0-2.2,0.4-4.4,1.1-6.4
			c-0.7-0.7-1.5-1.1-2.1-1.1v-7c4-6.9,12-11,21-11c8,0,16.2,4.1,21,11v7c-1.3,0-2.4,0.8-2.8,2C49.7,25.2,50,27,50,29
			s-0.3,3.8-0.8,5.6c0.4,1.1,1.5,2,2.8,2h3V21.5V14C49.7,6,41,0.5,31,0.5z"/>
	</g>
</g>
</svg>
