<svg id="Layer_1" data-name="Layer 1" xmlns="http://www.w3.org/2000/svg" viewBox="0 0 19.47 12.37">
  <title>gp</title>
  <g>
    <path d="M.27,10A6.14,6.14,0,0,1,6.14,3.83a6.19,6.19,0,0,1,4.44,1.52c-.51.55-1,1.1-1.57,1.62a4.35,4.35,0,0,0-3.66-.71A3.91,3.91,0,1,0,8,13.61a3.42,3.42,0,0,0,2-2.34c-1.18,0-2.36,0-3.54,0,0-.7,0-1.4,0-2.1,2,0,3.94,0,5.92,0a7,7,0,0,1-1.25,4.95,6.1,6.1,0,0,1-6.67,1.78A6.18,6.18,0,0,1,.27,10Zm0,0" transform="translate(-0.27 -3.81)"/>
    <path d="M16.2,7.35H18c0,.59,0,1.18,0,1.77h1.77v1.76H18c0,.59,0,1.18,0,1.77H16.2c0-.59,0-1.18,0-1.77H14.42V9.13h1.77c0-.59,0-1.18,0-1.77Zm0,0" transform="translate(-0.27 -3.81)"/>
  </g>
</svg>
