<svg id="Layer_1" data-name="Layer 1" xmlns="http://www.w3.org/2000/svg" viewBox="0 0 11.2 19.34">
  <title>ok</title>
  <g>
    <path d="M10,3.26A2.07,2.07,0,1,1,7.93,5.32,2.07,2.07,0,0,1,10,3.26Zm0,7.06a5,5,0,1,0-5-5,5,5,0,0,0,5,5" transform="translate(-4.4 -0.33)"/>
    <path d="M12,14.38a9.34,9.34,0,0,0,2.9-1.2,1.46,1.46,0,0,0-1.56-2.48,6.34,6.34,0,0,1-6.72,0,1.46,1.46,0,0,0-1.56,2.48A9.35,9.35,0,0,0,8,14.38L5.19,17.17a1.46,1.46,0,0,0,2.07,2.07L10,16.5l2.74,2.74a1.46,1.46,0,0,0,2.07-2.07L12,14.38" transform="translate(-4.4 -0.33)"/>
  </g>
</svg>
