<svg id="Layer_1" data-name="Layer 1" xmlns="http://www.w3.org/2000/svg" viewBox="0 0 17.48 14.2">
  <title>tw</title>
  <path d="M18.74,4.58a7.16,7.16,0,0,1-2.06.56,3.61,3.61,0,0,0,1.58-2A7.21,7.21,0,0,1,16,4,3.59,3.59,0,0,0,9.87,7.3,10.18,10.18,0,0,1,2.48,3.55,3.59,3.59,0,0,0,3.59,8.34,3.57,3.57,0,0,1,2,7.89v0a3.59,3.59,0,0,0,2.88,3.51,3.58,3.58,0,0,1-1.62.06A3.59,3.59,0,0,0,6.57,14a7.19,7.19,0,0,1-4.45,1.53,7.13,7.13,0,0,1-.86,0,10.15,10.15,0,0,0,5.5,1.61A10.13,10.13,0,0,0,17,6.9c0-.16,0-.31,0-.46a7.28,7.28,0,0,0,1.79-1.86Zm0,0" transform="translate(-1.26 -2.9)"/>
</svg>
