<svg id="Layer_1" data-name="Layer 1" xmlns="http://www.w3.org/2000/svg" viewBox="0 0 19.7 11.24">
  <defs>
    <style>
      .cls-1 {
        fill-rule: evenodd;
      }
    </style>
  </defs>
  <title>vk</title>
  <path class="cls-1" d="M9.79,15.57H11a1,1,0,0,0,.54-.23.86.86,0,0,0,.16-.52s0-1.58.71-1.81S14,14.53,15,15.21a1.86,1.86,0,0,0,1.31.4l2.63,0s1.38-.08.72-1.17a8.78,8.78,0,0,0-2-2.26c-1.65-1.53-1.43-1.28.56-3.93,1.21-1.61,1.69-2.6,1.54-3s-1-.3-1-.3l-3,0a.68.68,0,0,0-.38.07.82.82,0,0,0-.26.32,17.08,17.08,0,0,1-1.09,2.31C12.77,9.85,12.24,10,12,9.83c-.5-.33-.38-1.3-.38-2,0-2.17.33-3.07-.64-3.31a5,5,0,0,0-1.38-.14,6.38,6.38,0,0,0-2.46.25c-.34.16-.6.53-.44.55a1.33,1.33,0,0,1,.88.44A2.86,2.86,0,0,1,7.89,7s.17,2.56-.41,2.87c-.4.22-.95-.23-2.12-2.26A18.93,18.93,0,0,1,4.31,5.39a.88.88,0,0,0-.24-.33,1.23,1.23,0,0,0-.46-.18L.79,4.9s-.42,0-.58.2,0,.5,0,.5,2.2,5.15,4.7,7.75a6.76,6.76,0,0,0,4.89,2.23Zm0,0" transform="translate(-0.15 -4.38)"/>
</svg>
